<?xml version="1.0"?>
<svg xmlns="http://www.w3.org/2000/svg" xmlns:xlink="http://www.w3.org/1999/xlink" xmlns:svgjs="http://svgjs.com/svgjs" version="1.1" width="512" height="512" x="0" y="0" viewBox="0 0 64 64" style="enable-background:new 0 0 512 512" xml:space="preserve" class=""><g><path xmlns="http://www.w3.org/2000/svg" d="m60 36.5h-11.584l-8.61036-6.10547a1.50138 1.50138 0 0 0 -2.36764 1.22363v4.88184h-1.438a3.50424 3.50424 0 0 0 -3.5 3.5v20a3.50424 3.50424 0 0 0 3.5 3.5h24a3.50424 3.50424 0 0 0 3.5-3.5v-20a3.50424 3.50424 0 0 0 -3.5-3.5zm-8.3125 12.37793h-2.93774l-.67957 2.16113h2.00256a1.5 1.5 0 0 1 0 3h-2.94592l-1.22983 3.91114a1.50029 1.50029 0 0 1 -2.8623-.9004l.94671-3.01074h-2.16952l-1.22989 3.91114a1.50029 1.50029 0 0 1 -2.8623-.9004l.94671-3.01074h-1.97891a1.5 1.5 0 0 1 0-3h2.9223l.67963-2.16113h-1.98767a1.5 1.5 0 0 1 0-3h2.931l1.20373-3.82813a1.50029 1.50029 0 0 1 2.86231.9004l-.92066 2.92773h2.16956l1.20373-3.82813a1.50029 1.50029 0 0 1 2.86231.9004l-.92065 2.92773h1.99441a1.5 1.5 0 0 1 0 3zm8.125 8.62207a1.5 1.5 0 0 1 -3 0v-13.5h-1.706a1.5 1.5 0 1 1 0-3h3.206a1.50008 1.50008 0 0 1 1.5 1.5z" fill="#ff4354" data-original="#3e3ef4" style="" class=""/><path xmlns="http://www.w3.org/2000/svg" d="m42.755 51.039h2.17l.679-2.161h-2.169z" fill="#ff4354" data-original="#3e3ef4" style="" class=""/><path xmlns="http://www.w3.org/2000/svg" d="m29.62048 27.569a15.24962 15.24962 0 1 0 -19.251-.00757 19.37525 19.37525 0 0 0 -9.86948 16.93857v17.5a1.50007 1.50007 0 0 0 1.5 1.5h26a1.5 1.5 0 0 0 0-3h-24.5v-16a16.38887 16.38887 0 0 1 6.82251-13.35022 15.738 15.738 0 0 0 9.18628 7.76722 1.49309 1.49309 0 0 0 .98193 0 15.745 15.745 0 0 0 9.17914-7.74939 16.58928 16.58928 0 0 1 2.19049 1.87539 1.4997 1.4997 0 0 0 2.15528-2.086 19.90045 19.90045 0 0 0 -4.39515-3.388zm-9.62048-24.069a12.26121 12.26121 0 0 1 11.8927 9.36523 12.509 12.509 0 0 1 -8.52649-2.38281 12.338 12.338 0 0 1 -2.18848-2.1582 1.55332 1.55332 0 0 0 -2.35546 0 12.32438 12.32438 0 0 1 -2.189 2.1582c-3.69635 2.83255-8.0556 2.3218-8.526 2.38281a12.26121 12.26121 0 0 1 11.89273-9.36523zm0 32.40332a12.247 12.247 0 0 1 -7.06842-6.29532c.12677-.06.25769-.11383.38647-.1709a15.06454 15.06454 0 0 0 13.35242.00556c.13147.05816.26154.11853.39111.18a12.25424 12.25424 0 0 1 -7.06158 6.28066zm0-7.90332a12.26039 12.26039 0 0 1 -12.24414-12.13477c.61773-.0805 5.97048.62254 10.70117-3a15.27714 15.27714 0 0 0 1.54297-1.35546 15.21841 15.21841 0 0 0 1.54248 1.35546c4.6013 3.52277 10.2222 2.93752 10.70166 3a12.26039 12.26039 0 0 1 -12.24414 12.13477z" fill="#ff4354" data-original="#000000" style="" class=""/></g></svg>
