<?xml version="1.0"?>
<svg xmlns="http://www.w3.org/2000/svg" xmlns:xlink="http://www.w3.org/1999/xlink" xmlns:svgjs="http://svgjs.com/svgjs" version="1.1" width="512" height="512" x="0" y="0" viewBox="0 0 512.002 512.002" style="enable-background:new 0 0 512 512" xml:space="preserve" class=""><g><g xmlns="http://www.w3.org/2000/svg"><path d="m348.001 360.002h-184c-11.046 0-20 8.954-20 20 0 11.046 8.954 20 20 20h184c11.046 0 20-8.954 20-20 0-11.046-8.955-20-20-20z" fill="#ff4354" data-original="#000000" style="" class=""/><path d="m348.001 416.002h-184c-11.046 0-20 8.954-20 20 0 11.046 8.954 20 20 20h184c11.046 0 20-8.954 20-20 0-11.046-8.955-20-20-20z" fill="#ff4354" data-original="#000000" style="" class=""/><path d="m240.571 512.002h30.86c25.983 0 49.653-13.73 62.719-35.433 1.208-2.006-.225-4.567-2.567-4.567h-151.164c-2.342 0-3.775 2.561-2.567 4.567 13.08 21.728 36.767 35.433 62.719 35.433z" fill="#ff4354" data-original="#000000" style="" class=""/><path d="m325.268 214.022-42.188 36.915c-2.008 1.757-.765 5.065 1.903 5.065h3.017c39.764 0 72-32.236 72-72v-13.11c0-1.596-1.294-2.89-2.89-2.89h-21.11c-39.764 0-72 32.236-72 72v.001c0 2.483 2.924 3.81 4.793 2.175l45.939-40.197c3.322-2.908 8.378-2.574 11.288.752s2.574 8.38-.752 11.289z" fill="#ff4354" data-original="#000000" style="" class=""/><path d="m197.269 201.981 45.939 40.197c1.869 1.635 4.793.308 4.793-2.175v-.001c0-39.764-32.236-72-72-72h-21.11c-1.596 0-2.89 1.294-2.89 2.89v13.11c0 39.765 32.235 72 72 72h3.017c2.669 0 3.911-3.308 1.903-5.065l-42.188-36.915c-3.325-2.909-3.662-7.963-.752-11.289 2.908-3.325 7.962-3.663 11.288-.752z" fill="#ff4354" data-original="#000000" style="" class=""/><path d="m431.981 173.042c-1.59-96.53-81.44-174.13-178.07-173.03-46.57.54-90.27 19.09-123.04 52.23-67.947 68.671-67.045 177.515-2 245.47 12.053 12.594 21.033 28.008 26.143 44.633.436 1.419 1.831 2.296 3.298 2.071 4.457-.685 14.02-.421 86.746-.414 1.624 0 2.942-1.316 2.942-2.94v-66.17c0-1.596-1.294-2.89-2.89-2.89h-21.11c-48.601 0-88-39.399-88-88v-24c0-4.418 3.582-8 8-8h32c33.439 0 62.59 18.757 77.472 46.298 1.084 2.007 3.971 2.007 5.056 0 14.882-27.542 44.033-46.298 77.472-46.298h32c4.418 0 8 3.582 8 8v24c0 48.601-39.399 88-88 88h-21.11c-1.596 0-2.89 1.294-2.89 2.89v66.17c0 1.624 1.318 2.94 2.942 2.94 72.769-.007 82.312-.259 86.726.411 1.467.222 2.861-.653 3.297-2.072 5.104-16.623 14.018-31.987 25.995-44.459 32.381-33.721 49.791-78.06 49.021-124.84z" fill="#ff4354" data-original="#000000" style="" class=""/><path d="m56.001 176.002c0-4.418-3.582-8-8-8h-40c-4.418 0-8 3.582-8 8s3.582 8 8 8h40c4.418 0 8-3.582 8-8z" fill="#ff4354" data-original="#000000" style="" class=""/><path d="m71.867 273.073-34.641 20c-3.826 2.209-5.137 7.102-2.928 10.928 2.213 3.832 7.106 5.134 10.928 2.928l34.641-20c3.826-2.209 5.137-7.102 2.928-10.928s-7.101-5.135-10.928-2.928z" fill="#ff4354" data-original="#000000" style="" class=""/><path d="m37.226 58.93c37.081 21.408 35.602 21.073 38.634 21.073 8.172 0 11.065-10.855 4.007-14.93l-34.641-20c-3.827-2.209-8.718-.898-10.928 2.928-2.209 3.827-.898 8.72 2.928 10.929z" fill="#ff4354" data-original="#000000" style="" class=""/><path d="m504.001 168.002h-40c-4.418 0-8 3.582-8 8s3.582 8 8 8h40c4.418 0 8-3.582 8-8s-3.582-8-8-8z" fill="#ff4354" data-original="#000000" style="" class=""/><path d="m474.775 293.073-34.642-20c-3.826-2.21-8.719-.899-10.929 2.928-2.209 3.826-.897 8.719 2.929 10.928l34.642 20c3.809 2.2 8.709.915 10.929-2.928 2.209-3.826.897-8.719-2.929-10.928z" fill="#ff4354" data-original="#000000" style="" class=""/><path d="m436.141 80.003c3.047 0 1.6.308 38.634-21.073 3.826-2.209 5.138-7.102 2.929-10.928-2.209-3.825-7.101-5.14-10.929-2.928l-34.642 20c-7.07 4.081-4.152 14.929 4.008 14.929z" fill="#ff4354" data-original="#000000" style="" class=""/></g></g></svg>
