<?xml version="1.0"?>
<svg xmlns="http://www.w3.org/2000/svg" xmlns:xlink="http://www.w3.org/1999/xlink" xmlns:svgjs="http://svgjs.com/svgjs" version="1.1" width="20" height="20" x="0" y="0" viewBox="0 0 512 512" style="enable-background:new 0 0 512 512" xml:space="preserve" class=""><g><g xmlns="http://www.w3.org/2000/svg"><path d="m285 307c0 44.112-35.888 80-80 80s-80-35.888-80-80 35.888-80 80-80c16.647 0 32.119 5.116 44.936 13.851l33.949-33.949c-21.718-17.152-49.126-27.402-78.885-27.402-70.304 0-127.5 57.196-127.5 127.5s57.196 127.5 127.5 127.5 127.5-57.196 127.5-127.5c0-29.759-10.25-57.167-27.402-78.885l-33.949 33.949c8.735 12.817 13.851 28.289 13.851 44.936z" fill="#ff4354" data-original="#000000" style="" class=""/><path d="m194.394 317.606c-5.858-5.858-5.858-15.355 0-21.213l33.713-33.713c-6.917-3.62-14.774-5.68-23.107-5.68-27.57 0-50 22.43-50 50s22.43 50 50 50 50-22.43 50-50c0-8.333-2.06-16.19-5.681-23.106l-33.713 33.713c-5.857 5.857-15.355 5.857-21.212-.001z" fill="#ff4354" data-original="#000000" style="" class=""/><path d="m362.5 307c0 86.846-70.654 157.5-157.5 157.5s-157.5-70.654-157.5-157.5 70.654-157.5 157.5-157.5c38.033 0 72.96 13.552 100.208 36.079l33.688-33.687c-35.947-31.073-82.764-49.892-133.896-49.892-113.037 0-205 91.963-205 205s91.963 205 205 205 205-91.963 205-205c0-51.132-18.819-97.949-49.892-133.895l-33.688 33.687c22.528 27.248 36.08 62.175 36.08 100.208z" fill="#ff4354" data-original="#000000" style="" class=""/><g><path d="m390.413 127.213c-.134-.031-.27-.047-.403-.086-2.622-.753-4.628-2.87-5.239-5.528l-2.912-12.67-42.963 42.963c7.574 6.547 14.666 13.639 21.213 21.213l42.964-42.964-12.671-2.912z" fill="#ff4354" data-original="#000000" style="" class=""/><path d="m469.966 63.247 9.356-9.356c5.858-5.858 5.858-15.355 0-21.213s-15.355-5.858-21.213 0l-9.356 9.356 5.732 15.48z" fill="#ff4354" data-original="#000000" style="" class=""/><path d="m436.816 9.796c-1.782-4.816-5.842-8.348-10.859-9.445-5.016-1.097-10.181.414-13.814 4.047l-38.287 38.287v.001c-3.678 3.676-5.177 8.897-4.012 13.966l12.016 52.277 66.894-66.895z" fill="#ff4354" data-original="#000000" style="" class=""/><path d="m511.649 86.043c-1.098-5.018-4.629-9.077-9.444-10.859l-32.238-11.937-66.894 66.894 52.275 12.015c1.132.26 2.271.388 3.398.388 3.925 0 7.713-1.543 10.569-4.399l38.288-38.288c3.632-3.633 5.144-8.797 4.046-13.814z" fill="#ff4354" data-original="#000000" style="" class=""/></g></g></g></svg>
